#!OML:ASF F:\VICON\USERDATA\INSTALL\rory3\rory3.ASF
:FULLY-SPECIFIED
:DEGREES
17
root 0.935605 17.5717 -28.8036 -2.23076 -3.21353 2.44312
lowerback 6.65675 -1.05383 -5.3676
upperback -1.81821 -1.67702 3.90687
thorax -5.38297 -0.582156 7.34896
lowerneck -3.68414 0.792577 -12.5495
upperneck 19.3836 1.88789 2.64892
head 6.39256 0.223163 3.05589
rclavicle 2.07233e-014 -3.02153e-014
rhumerus -31.5756 -2.10016 -75.6512
rradius 38.2947
rwrist -1.77464
rhand -14.8742 18.2922
rfingers 7.12502
rthumb 11.286 -11.3842
lclavicle 2.07233e-014 -3.02153e-014
lhumerus -51.5785 24.4969 75.777
lradius 20.0096
lwrist -23.8046
lhand -9.78377 27.9549
lfingers 7.12502
lthumb 16.1919 57.2987
rfemur -2.34143 4.80302 18.9446
rtibia 63.4797
rfoot 15.5707 -6.54447
rtoes 6.00373
lfemur -15.5809 -1.7004 -23.454
ltibia 20.0254
lfoot -1.54587 -2.73536
ltoes -4.49509
18
root 0.942296 17.5904 -28.6166 -2.31386 -2.74323 2.7101
lowerback 7.04625 0.944125 -2.58827
upperback 0.362639 1.08738 0.990967
thorax -3.64506 0.590619 2.37048
lowerneck -12.0526 -2.40285 -8.80926
upperneck 21.6092 -2.29049 3.67499
head 8.90202 -1.41051 2.47026
rclavicle -8.02593e-015 3.97569e-016
rhumerus -29.0604 -12.5811 -76.7036
rradius 37.6955
rwrist -0.538847
rhand -14.5825 18.7658
rfingers 7.12502
rthumb 11.5674 -10.895
lclavicle -8.02593e-015 3.97569e-016
lhumerus -42.8798 16.1286 78.6735
lradius 19.0253
lwrist -21.9881
lhand -10.0023 27.7312
lfingers 7.12502
lthumb 15.9814 57.0919
rfemur -3.71075 4.01655 18.5756
rtibia 65.4386
rfoot 13.9833 -6.63739
rtoes 5.50813
lfemur -14.65 -1.79319 -23.9273
ltibia 19.7263
lfoot -1.9227 -2.88894
ltoes -4.61208
19
root 0.948548 17.6051 -28.4316 -2.36096 -2.35242 2.99296
lowerback 6.58775 0.639157 -3.12102
upperback 0.693125 0.66193 1.18711
thorax -3.02831 0.374208 2.92152
lowerneck -11.8956 -2.04411 -9.06716
upperneck 20.5174 -1.73046 3.6313
head 8.4653 -1.15274 2.54931
rclavicle -5.26779e-015 -3.97569e-015
rhumerus -28.5606 -12.1568 -76.7576
rradius 37.0607
rwrist -0.126439
rhand -14.4465 19.2257
rfingers 7.12502
rthumb 11.6986 -10.4277
lclavicle -5.26779e-015 -3.97569e-015
lhumerus -42.1965 16.1602 79.38
lradius 19.2091
lwrist -21.1076
lhand -11.0383 26.7107
lfingers 7.12502
lthumb 14.9836 56.1487
rfemur -5.15486 3.307 18.1611
rtibia 67.2034
rfoot 12.4028 -6.99981
rtoes 6.00808
lfemur -13.7891 -1.82471 -24.3929
ltibia 19.5204
lfoot -2.42202 -3.06418
ltoes -4.68293
20
root 0.954602 17.6232 -28.245 -2.36524 -1.97428 3.13974
lowerback 6.29653 0.541973 -3.16602
upperback 1.14676 0.537992 1.06072
thorax -2.38649 0.294521 2.82934
lowerneck -12.6492 -2.15855 -8.83799
upperneck 20.1474 -1.84519 3.56158
head 8.48219 -1.18308 2.4683
rclavicle -3.52843e-015 7.95139e-016
rhumerus -27.7976 -12.8972 -77.0713
rradius 36.331
rwrist 0.49598
rhand -14.4207 19.0427
rfingers 7.12502
rthumb 11.7234 -10.6092
lclavicle -3.52843e-015 7.95139e-016
lhumerus -40.7553 15.1315 80.1875
lradius 19.4045
lwrist -20.1709
lhand -11.2426 26.8058
lfingers 7.12502
lthumb 14.7868 56.2583
rfemur -6.74995 2.67195 17.9338
rtibia 68.8446
rfoot 11.2218 -7.55433
rtoes 5.96724
lfemur -13.0682 -1.83617 -24.6713
ltibia 19.4865
lfoot -2.99169 -3.35008
ltoes -4.32526
21
root 0.971945 17.6427 -28.0537 -2.36268 -2.35496 3.0255
lowerback 6.45269 -1.76763 -5.83235
upperback -1.3384 -2.6683 3.81261
thorax -4.58009 -1.11216 7.58211
lowerneck -4.04601 1.05439 -12.8556
upperneck 18.1536 2.322 2.52659
head 6.03001 0.454454 3.07222
rclavicle -1.82882e-014 0
rhumerus -30.9359 -2.24456 -76.4446
rradius 35.9353
rwrist -0.208448
rhand -13.9571 18.6099
rfingers 7.12502
rthumb 12.1705 -11.0161
lclavicle -1.82882e-014 0
lhumerus -48.8142 22.377 78.4268
lradius 21.1364
lwrist -19.7461
lhand -10.1919 28.9125
lfingers 7.12502
lthumb 15.7988 58.2878
rfemur -8.40049 2.70491 17.9443
rtibia 70.2868
rfoot 10.2126 -7.95643
rtoes 6.96966
lfemur -12.3819 -1.58878 -24.6452
ltibia 19.5708
lfoot -3.65031 -3.03873
ltoes -4.09741
22
root 0.999194 17.6462 -27.8588 -2.32453 -3.38009 3.17443
lowerback 5.99913 -1.15355 -5.2857
upperback -1.0538 -1.80271 3.29565
thorax -4.20185 -0.725179 6.60663
lowerneck -4.5134 0.718488 -12.0401
upperneck 18.3868 1.84401 2.57711
head 6.22091 0.272838 2.93782
rclavicle -1.51325e-014 1.11319e-014
rhumerus -31.0598 -4.2434 -76.5639
rradius 35.4621
rwrist 0.75873
rhand -13.5271 18.5439
rfingers 7.12502
rthumb 12.5851 -11.057
lclavicle -1.51325e-014 1.11319e-014
lhumerus -47.5049 20.871 78.7615
lradius 21.3062
lwrist -19.6458
lhand -9.25798 30.5339
lfingers 7.12502
lthumb 16.6981 59.8357
rfemur -10.1916 3.17171 17.5513
rtibia 71.6218
rfoot 9.19501 -7.9638
rtoes 7.56691
lfemur -11.6886 -1.32272 -24.9207
ltibia 19.6168
lfoot -4.34262 -2.00284
ltoes -3.67166
23
root 1.01457 17.6514 -27.6651 -2.38916 -3.31376 3.18788
lowerback 5.64308 0.719373 -2.67649
upperback 1.29253 0.821917 0.965802
thorax -1.88401 0.422886 2.43807
lowerneck -12.5054 -1.80359 -8.80074
upperneck 20.6724 -1.40114 3.65784
head 8.6026 -0.972486 2.5511
rclavicle 4.22417e-016 5.56597e-015
rhumerus -28.3018 -13.6201 -77.4109
rradius 34.9175
rwrist 2.53914
rhand -13.4557 18.5863
rfingers 7.12502
rthumb 12.6539 -11.0104
lclavicle 4.22417e-016 5.56597e-015
lhumerus -39.6284 14.2563 80.509
lradius 20.3584
lwrist -19.8997
lhand -9.57608 29.7725
lfingers 7.12502
lthumb 16.3918 59.0999
rfemur -11.5082 2.70894 17.4275
rtibia 72.6543
rfoot 7.74131 -8.14706
rtoes 7.16776
lfemur -10.8743 -1.40854 -25.0761
ltibia 19.5767
lfoot -5.10502 -1.7663
ltoes -3.00687
24
root 1.01931 17.6638 -27.4691 -2.56165 -2.42139 3.10878
lowerback 5.7581 0.273537 -2.67022
upperback 1.33143 0.229765 1.14058
thorax -1.87163 0.126928 2.65803
lowerneck -12.5138 -1.88545 -9.10967
upperneck 20.5431 -1.39894 3.44383
head 8.56476 -1.01499 2.52786
rclavicle -1.66482e-015 -1.03368e-014
rhumerus -28.6185 -13.3777 -77.3836
rradius 34.6519
rwrist 3.28014
rhand -13.3334 18.5625
rfingers 7.12502
rthumb 12.7718 -11.0269
lclavicle -1.66482e-015 -1.03368e-014
lhumerus -39.3056 14.2923 80.6697
lradius 20.5228
lwrist -20.263
lhand -10.1012 28.5184
lfingers 7.12502
lthumb 15.8862 57.8868
rfemur -12.5038 1.58553 17.5312
rtibia 73.4231
rfoot 6.1531 -8.37213
rtoes 5.62283
lfemur -9.89088 -1.91223 -25.1245
ltibia 19.4582
lfoot -5.68331 -1.9976
ltoes -2.86108
25
root 1.02941 17.6762 -27.2776 -2.61306 -2.20253 3.40456
lowerback 5.88301 0.214145 -2.92614
upperback 1.29109 0.130659 1.08897
thorax -1.97664 0.0808228 2.7564
lowerneck -12.7155 -1.91449 -9.00579
upperneck 20.8123 -1.40363 3.26655
head 8.69263 -1.03162 2.45232
rclavicle -1.9133e-015 -1.59028e-015
rhumerus -28.9978 -13.54 -77.4032
rradius 34.3506
rwrist 4.04624
rhand -13.7356 17.8775
rfingers 7.12502
rthumb 12.384 -11.7357
lclavicle -1.9133e-015 -1.59028e-015
lhumerus -38.8037 13.5889 81.0533
lradius 20.6876
lwrist -20.0595
lhand -10.8899 27.2506
lfingers 7.12502
lthumb 15.1266 56.6778
rfemur -13.9011 1.05296 17.1053
rtibia 74.077
rfoot 4.79816 -8.36081
rtoes 4.83044
lfemur -8.96955 -1.97566 -25.5896
ltibia 19.1601
lfoot -6.16454 -1.89177
ltoes -3.17199
26
root 1.04045 17.6816 -27.0994 -2.56244 -2.25744 3.70644
lowerback 5.91838 0.211752 -3.20777
upperback 1.15713 0.106923 1.04237
thorax -2.13311 0.0750916 2.86903
lowerneck -12.4525 -1.86548 -8.97831
upperneck 20.8941 -1.36157 3.23423
head 8.66892 -1.0166 2.44288
rclavicle 6.70898e-016 -1.59028e-014
rhumerus -29.5038 -13.6816 -77.395
rradius 34.0241
rwrist 5.05079
rhand -13.8833 17.2941
rfingers 7.12502
rthumb 12.2417 -12.3277
lclavicle 6.70898e-016 -1.59028e-014
lhumerus -38.476 12.6765 81.5076
lradius 21.1399
lwrist -19.5304
lhand -10.4152 30.638
lfingers 7.12502
lthumb 15.5838 60.0302
rfemur -15.5319 0.710339 16.6565
rtibia 74.6394
rfoot 3.74504 -8.26081
rtoes 5.43891
lfemur -8.20846 -1.79602 -26.0472
ltibia 18.8617
lfoot -6.46238 -1.80269
ltoes -2.26882
27
root 1.04378 17.6842 -26.9184 -2.57021 -1.81531 3.96579
lowerback 5.88795 0.00840075 -3.52875
upperback 1.18086 -0.182115 1.05711
thorax -2.06905 -0.068724 3.08715
lowerneck -12.4815 -1.87406 -9.11879
upperneck 20.9148 -1.33777 3.22285
head 8.68176 -1.01806 2.46513
rclavicle -3.2054e-015 2.78299e-014
rhumerus -29.8509 -13.6192 -77.3928
rradius 33.835
rwrist 5.7828
rhand -13.3125 15.9094
rfingers 7.12502
rthumb 12.7919 -13.6787
lclavicle -3.2054e-015 2.78299e-014
lhumerus -37.9126 12.3405 81.7522
lradius 21.5329
lwrist -19.9764
lhand -7.31285 41.4927
lfingers 7.12502
lthumb 18.5699 70.6263
rfemur -16.8993 -0.0508514 16.3462
rtibia 75.0484
rfoot 2.28648 -8.01786
rtoes 5.86094
lfemur -7.46046 -1.96399 -26.4537
ltibia 18.7229
lfoot -6.82722 -1.85814
ltoes -1.40104
28
root 1.04652 17.6777 -26.7363 -2.51673 -1.37189 4.1713
lowerback 5.70189 -0.228476 -3.72302
upperback 1.26425 -0.502064 1.03462
thorax -1.85196 -0.233263 3.1948
lowerneck -12.5033 -1.82766 -9.14661
upperneck 20.8652 -1.25265 3.16691
head 8.66352 -0.984851 2.4595
rclavicle -1.05356e-014 6.36111e-015
rhumerus -30.0184 -13.6153 -77.4743
rradius 33.4782
rwrist 6.26755
rhand -12.844 14.9751
rfingers 7.12502
rthumb 13.2436 -14.5842
lclavicle -1.05356e-014 6.36111e-015
lhumerus -37.2543 11.9532 81.957
lradius 21.9259
lwrist -20.2035
lhand -8.80105 33.6318
lfingers 7.12502
lthumb 17.1379 62.8959
rfemur -18.2997 -0.851547 16.1195
rtibia 75.3358
rfoot 0.787403 -7.71704
rtoes 4.62022
lfemur -6.89982 -2.13171 -26.8002
ltibia 18.8295
lfoot -7.6142 -1.95378
ltoes -1.62361
29
root 1.0517 17.6608 -26.5594 -2.4058 -1.31172 4.44497
lowerback 5.80451 -0.330556 -3.96257
upperback 1.01968 -0.661643 0.951845
thorax -2.14664 -0.301147 3.25872
lowerneck -11.9923 -1.74533 -9.10144
upperneck 20.7624 -1.20074 3.16477
head 8.53034 -0.958323 2.4565
rclavicle -3.85145e-015 5.56597e-015
rhumerus -30.7819 -13.3359 -77.6378
rradius 33.3207
rwrist 6.2133
rhand -12.947 14.5421
rfingers 7.12502
rthumb 13.1442 -15.0236
lclavicle -3.85145e-015 5.56597e-015
lhumerus -37.2058 11.3311 82.0278
lradius 22.3477
lwrist -20.266
lhand -9.43921 30.3707
lfingers 7.12502
lthumb 16.5236 59.6871
rfemur -19.8872 -1.21442 15.8427
rtibia 75.5278
rfoot -0.443644 -7.35454
rtoes 3.72238
lfemur -6.4864 -2.12907 -27.2022
ltibia 19.0799
lfoot -8.57314 -1.99512
ltoes -4.03494
30
root 1.05434 17.6539 -26.3828 -2.27429 -1.38259 4.3896
lowerback 5.95435 -0.312203 -3.94295
upperback 0.879713 -0.642411 1.01481
thorax -2.37616 -0.283949 3.31459
lowerneck -12.0034 -1.82932 -9.06003
upperneck 20.8049 -1.29253 3.01609
head 8.55291 -1.01445 2.38933
rclavicle 4.00054e-015 -8.74653e-015
rhumerus -31.395 -13.2247 -77.6726
rradius 33.247
rwrist 6.01783
rhand -13.1176 14.0591
rfingers 7.12502
rthumb 12.9798 -15.5172
lclavicle 4.00054e-015 -8.74653e-015
lhumerus -36.7996 10.5207 82.331
lradius 22.7086
lwrist -20.0728
lhand -9.92621 29.3481
lfingers 7.12502
lthumb 16.0547 58.703
rfemur -21.4683 -1.43448 16.026
rtibia 75.4934
rfoot -1.86333 -7.38915
rtoes 4.19578
lfemur -6.24643 -2.05158 -27.2263
ltibia 19.661
lfoot -9.46808 -1.73083
ltoes -5.46788
31
root 1.05977 17.6381 -26.2077 -2.19602 -1.31195 4.62554
lowerback 5.81782 -0.347437 -4.1623
upperback 1.09519 -0.694423 1.01114
thorax -2.07002 -0.319188 3.43485
lowerneck -12.7232 -1.91681 -9.25565
upperneck 21.0606 -1.32988 3.16037
head 8.7778 -1.03391 2.4685
rclavicle 1.58531e-014 -1.98785e-014
rhumerus -31.2317 -13.3664 -77.7299
rradius 32.8134
rwrist 5.90901
rhand -13.6515 15.2005
rfingers 7.12502
rthumb 12.4652 -14.4078
lclavicle 1.58531e-014 -1.98785e-014
lhumerus -35.6582 10.0521 82.677
lradius 22.817
lwrist -19.6103
lhand -10.7346 28.2275
lfingers 7.12502
lthumb 15.2762 57.6434
rfemur -22.9498 -1.82729 15.8203
rtibia 75.3331
rfoot -3.77776 -7.47051
rtoes 3.47031
lfemur -6.01478 -2.0318 -27.6159
ltibia 20.2675
lfoot -9.99696 -1.10839
ltoes -5.60335
